<svg width="28" height="28" viewBox="0 0 28 28" fill="none" xmlns="http://www.w3.org/2000/svg">
<path d="M13.9703 9.66661C13.7717 9.66551 13.5747 9.70192 13.3908 9.77376C13.2069 9.84559 13.0396 9.95143 12.8986 10.0852L6.86067 15.859C6.71993 15.9936 6.60829 16.1534 6.53212 16.3292C6.45595 16.5051 6.41675 16.6936 6.41675 16.8839C6.41675 17.0742 6.45595 17.2627 6.53212 17.4385C6.60829 17.6144 6.71993 17.7742 6.86067 17.9087C7.00141 18.0433 7.1685 18.1501 7.35239 18.2229C7.53627 18.2958 7.73336 18.3333 7.9324 18.3333C8.13144 18.3333 8.32853 18.2958 8.51242 18.2229C8.6963 18.1501 8.86339 18.0433 9.00413 17.9087L13.9703 13.1309L18.9516 17.7211C19.0904 17.8687 19.2597 17.9874 19.4487 18.0697C19.6377 18.1519 19.8424 18.196 20.05 18.1992C20.2577 18.2023 20.4637 18.1644 20.6554 18.088C20.847 18.0115 21.0201 17.898 21.1638 17.7546C21.3074 17.6112 21.4186 17.4411 21.4904 17.2547C21.5622 17.0684 21.593 16.8699 21.5808 16.6716C21.5687 16.4734 21.514 16.2797 21.42 16.1026C21.326 15.9255 21.1948 15.7689 21.0347 15.6425L14.9968 10.0708C14.7207 9.81628 14.3537 9.67177 13.9703 9.66661Z" fill="black"/>
</svg>
