<svg width="20" height="20" viewBox="0 0 20 20" fill="none" xmlns="http://www.w3.org/2000/svg">
<path d="M9.97718 13.3336C9.82436 13.3345 9.67288 13.3065 9.53141 13.2512C9.38994 13.196 9.26127 13.1145 9.15277 13.0116L4.50823 8.57024C4.39997 8.46671 4.31409 8.3438 4.2555 8.20854C4.1969 8.07327 4.16675 7.9283 4.16675 7.78189C4.16675 7.63548 4.1969 7.4905 4.2555 7.35523C4.31409 7.21997 4.39997 7.09706 4.50823 6.99354C4.61649 6.89001 4.74502 6.80789 4.88647 6.75186C5.02792 6.69583 5.17953 6.66699 5.33263 6.66699C5.48574 6.66699 5.63735 6.69583 5.7788 6.75186C5.92025 6.80789 6.04878 6.89001 6.15704 6.99354L9.97718 10.6688L13.8089 7.13788C13.9157 7.0243 14.0459 6.93302 14.1913 6.86975C14.3367 6.80648 14.4942 6.77257 14.6539 6.77015C14.8136 6.76773 14.9721 6.79685 15.1195 6.85569C15.267 6.91452 15.4001 7.00182 15.5106 7.1121C15.6211 7.22239 15.7067 7.35329 15.7619 7.49663C15.8171 7.63997 15.8408 7.79266 15.8314 7.94515C15.8221 8.09765 15.78 8.24666 15.7077 8.38287C15.6354 8.51908 15.5345 8.63957 15.4113 8.73679L10.7667 13.0227C10.5544 13.2185 10.2721 13.3297 9.97718 13.3336Z" fill="black"/>
</svg>
