<svg width="22" height="22" viewBox="0 0 22 22" fill="none" xmlns="http://www.w3.org/2000/svg">
    <path
        d="M13.7499 0.916687H3.66659C2.65825 0.916687 1.83325 1.74169 1.83325 2.75002V14.6667C1.83325 15.1709 2.24575 15.5834 2.74992 15.5834C3.25409 15.5834 3.66659 15.1709 3.66659 14.6667V3.66669C3.66659 3.16252 4.07909 2.75002 4.58325 2.75002H13.7499C14.2541 2.75002 14.6666 2.33752 14.6666 1.83335C14.6666 1.32919 14.2541 0.916687 13.7499 0.916687ZM14.2908 5.12419L18.7183 9.55169C19.0574 9.89086 19.2499 10.3584 19.2499 10.8442V19.25C19.2499 20.2584 18.4249 21.0834 17.4166 21.0834H7.32408C6.31575 21.0834 5.49992 20.2584 5.49992 19.25L5.50909 6.41669C5.50909 5.40836 6.32492 4.58336 7.33325 4.58336H12.9891C13.4749 4.58336 13.9424 4.77586 14.2908 5.12419ZM13.7499 11H17.8749L12.8333 5.95836V10.0834C12.8333 10.5875 13.2458 11 13.7499 11Z"
        fill="black" />
</svg>