<svg width="30" height="30" viewBox="0 0 30 30" fill="none" xmlns="http://www.w3.org/2000/svg">
<path d="M13.5181 16.5965L13.0322 7.5H16.2393L15.7533 16.5965H13.5181ZM14.626 21.825C14.1206 21.825 13.6995 21.6501 13.3626 21.3002C13.0257 20.9503 12.8572 20.5292 12.8572 20.0368C12.8572 19.5185 13.0257 19.0909 13.3626 18.754C13.6995 18.4041 14.1206 18.2292 14.626 18.2292C15.1443 18.2292 15.5655 18.4041 15.8894 18.754C16.2263 19.0909 16.3948 19.5185 16.3948 20.0368C16.3948 20.5292 16.2263 20.9503 15.8894 21.3002C15.5655 21.6501 15.1443 21.825 14.626 21.825Z" fill="#FB576A"/>
<rect x="2.5" y="2.875" width="24.625" height="24.625" rx="12.3125" stroke="#FB576A" stroke-width="2"/>
</svg>