<svg width="30" height="30" viewBox="0 0 30 30" fill="none" xmlns="http://www.w3.org/2000/svg">
    <path
        d="M16.1421 21.5753C16.1421 22.1276 15.6944 22.5753 15.1421 22.5753H14.1118C13.5595 22.5753 13.1118 22.1276 13.1118 21.5753V14.4844C13.1118 13.9321 13.5595 13.4844 14.1118 13.4844H15.1421C15.6944 13.4844 16.1421 13.9321 16.1421 14.4844V21.5753ZM16.1421 9.45413C16.1421 10.0064 15.6944 10.4541 15.1421 10.4541H14.1118C13.5595 10.4541 13.1118 10.0064 13.1118 9.45413V8.42383C13.1118 7.87154 13.5595 7.42383 14.1118 7.42383H15.1421C15.6944 7.42383 16.1421 7.87154 16.1421 8.42383V9.45413Z"
        fill="#1A63F5" />
    <path
        d="M27.2625 14.9996C27.2625 21.9785 21.605 27.636 14.6261 27.636C7.64724 27.636 1.98975 21.9785 1.98975 14.9996C1.98975 8.02077 7.64724 2.36328 14.6261 2.36328C21.605 2.36328 27.2625 8.02077 27.2625 14.9996Z"
        stroke="#1A63F5" stroke-width="2" />
</svg>