<svg width="22" height="22" viewBox="0 0 22 22" fill="none" xmlns="http://www.w3.org/2000/svg">
    <path fill-rule="evenodd" clip-rule="evenodd"
        d="M13.4506 9.02398C13.4506 11.3737 11.6299 13.1558 9.5325 13.1558C7.43515 13.1558 5.61437 11.3737 5.61437 9.02398C5.61437 6.6743 7.43515 4.8922 9.5325 4.8922C11.6299 4.8922 13.4506 6.6743 13.4506 9.02398ZM12.7278 14.2032C11.8055 14.8152 10.709 15.17 9.5325 15.17C6.25613 15.17 3.6001 12.4183 3.6001 9.02398C3.6001 5.62961 6.25613 2.87793 9.5325 2.87793C12.8089 2.87793 15.4649 5.62961 15.4649 9.02398C15.4649 10.4576 14.9911 11.7765 14.197 12.8219L18.1587 17.461C18.52 17.8839 18.4699 18.5197 18.0469 18.8809C17.624 19.2421 16.9882 19.192 16.627 18.7691L12.7278 14.2032Z"
        fill="#010918" />
</svg>