<svg width="30" height="30" viewBox="0 0 30 30" fill="none" xmlns="http://www.w3.org/2000/svg">
<path d="M14.9999 2.23607L27.3104 26.8571H2.68933L14.9999 2.23607Z" stroke="#3F1AF5" stroke-width="2"/>
<path d="M14.4413 18.8415L14.0644 11.7861H16.5519L16.175 18.8415H14.4413ZM15.3006 22.8968C14.9086 22.8968 14.582 22.7612 14.3207 22.4898C14.0594 22.2184 13.9287 21.8918 13.9287 21.5099C13.9287 21.1079 14.0594 20.7762 14.3207 20.5149C14.582 20.2435 14.9086 20.1079 15.3006 20.1079C15.7026 20.1079 16.0292 20.2435 16.2805 20.5149C16.5418 20.7762 16.6725 21.1079 16.6725 21.5099C16.6725 21.8918 16.5418 22.2184 16.2805 22.4898C16.0292 22.7612 15.7026 22.8968 15.3006 22.8968Z" fill="#3F1AF5"/>
</svg>
